<svg data-v-ce5606dc="" width="20" height="22" viewBox="0 0 20 22" fill="none" xmlns="http://www.w3.org/2000/svg" class=""><g data-v-ce5606dc="" id="G Mark 1"><path data-v-ce5606dc="" id="Blue 500" d="M19.8749 11.2285C19.8749 10.4963 19.809 9.79575 19.6865 9.12207H10.21V12.9817L15.6677 12.9829C15.4463 14.2671 14.7339 15.3618 13.6424 16.0917V18.5957H16.8911C18.7881 16.8519 19.8749 14.2741 19.8749 11.2285Z" fill="#4285F4"></path><path data-v-ce5606dc="" id="Green 500 1" d="M13.6435 16.0924C12.7392 16.6983 11.5746 17.0527 10.2123 17.0527C7.58053 17.0527 5.34798 15.2913 4.54845 12.917H1.19727V15.4995C2.85755 18.772 6.26997 21.0176 10.2123 21.0176C12.937 21.0176 15.2261 20.1275 16.8923 18.5954L13.6435 16.0924Z" fill="#34A853"></path><path data-v-ce5606dc="" id="Yellow 500 1" d="M4.23332 11.0014C4.23332 10.3347 4.34518 9.69026 4.54889 9.08441V6.50195H1.19771C0.511221 7.85517 0.125 9.38265 0.125 11.0014C0.125 12.6201 0.512398 14.1476 1.19771 15.5008L4.54889 12.9183C4.34518 12.3125 4.23332 11.668 4.23332 11.0014Z" fill="#FABB05"></path><path data-v-ce5606dc="" id="Red 500" d="M10.2123 4.94831C11.6995 4.94831 13.0312 5.45708 14.0827 6.45123L16.9617 3.59392C15.2131 1.97638 12.9335 0.983398 10.2123 0.983398C6.27114 0.983398 2.85755 3.22901 1.19727 6.50152L4.54845 9.08398C5.34798 6.70971 7.58053 4.94831 10.2123 4.94831Z" fill="#E94235"></path></g></svg>